<?xml version="1.0" encoding="UTF-8" standalone="no"?>
<svg
   xmlns:dc="http://purl.org/dc/elements/1.1/"
   xmlns:cc="http://creativecommons.org/ns#"
   xmlns:rdf="http://www.w3.org/1999/02/22-rdf-syntax-ns#"
   xmlns:svg="http://www.w3.org/2000/svg"
   xmlns="http://www.w3.org/2000/svg"
   xmlns:sodipodi="http://sodipodi.sourceforge.net/DTD/sodipodi-0.dtd"
   xmlns:inkscape="http://www.inkscape.org/namespaces/inkscape"
   width="24"
   height="24"
   viewBox="0 0 24 24"
   id="svg2"
   version="1.1"
   inkscape:version="0.91 r13725"
   sodipodi:docname="iconmonstr-weather-117-2.svg">
  <metadata
     id="metadata10">
    <rdf:RDF>
      <cc:Work
         rdf:about="">
        <dc:format>image/svg+xml</dc:format>
        <dc:type
           rdf:resource="http://purl.org/dc/dcmitype/StillImage" />
        <dc:title></dc:title>
      </cc:Work>
    </rdf:RDF>
  </metadata>
  <defs
     id="defs8" />
  <sodipodi:namedview
     pagecolor="#ffffff"
     bordercolor="#666666"
     borderopacity="1"
     objecttolerance="10"
     gridtolerance="10"
     guidetolerance="10"
     inkscape:pageopacity="0"
     inkscape:pageshadow="2"
     inkscape:window-width="1366"
     inkscape:window-height="705"
     id="namedview6"
     showgrid="false"
     inkscape:zoom="9.8333333"
     inkscape:cx="-0.66101695"
     inkscape:cy="12"
     inkscape:window-x="-8"
     inkscape:window-y="-8"
     inkscape:window-maximized="1"
     inkscape:current-layer="svg2" />
  <path
     d="M 13,6.999 C 10.605,7.73 8.73,9.606 8.001,12 7.268,9.605 5.393,7.731 3,7 5.393,6.269 7.268,4.395 8.001,2 8.73,4.394 10.605,6.268 13,6.999 Z m -7,7 C 4.563,14.437 3.438,15.563 3.001,17 2.561,15.563 1.436,14.438 0,14 1.436,13.561 2.561,12.437 3.001,11 3.438,12.436 4.563,13.561 6,13.999 Z M 12,19.5 C 10.802,19.865 9.865,20.803 9.501,22 9.135,20.802 8.197,19.865 7,19.5 8.197,19.134 9.134,18.198 9.501,17 9.865,18.197 10.802,19.134 12,19.5 Z m 6,-8.272 c -0.522,0.658 -1.118,1.253 -1.775,1.775 0.657,0.522 1.252,1.117 1.773,1.774 0.522,-0.658 1.118,-1.253 1.776,-1.776 C 19.116,12.48 18.522,11.885 18,11.228 Z M 18.001,7 c 0.875,2.873 3.128,5.125 5.999,6.001 -2.876,0.88 -5.124,3.128 -6.004,6.004 C 17.121,16.131 14.868,13.881 12,13.001 14.868,12.127 17.121,9.874 18.001,7 Z"
     id="path4"
     inkscape:connector-curvature="0" />
</svg>
